<svg xmlns="http://www.w3.org/2000/svg" width="68" height="64" viewBox="0 0 68 64">
  <path id="Broken_heart" data-name="Broken heart" d="M34,64,6.2,36.171A21.211,21.211,0,0,1,6.2,6.2,21.136,21.136,0,0,1,34,4.352,21.175,21.175,0,0,1,61.8,36.171c-.6.6-19.293,19.312-27.3,27.33L34,64ZM20.9,2.018A18.826,18.826,0,0,0,7.5,7.625a19.215,19.215,0,0,0,.122,27.118l25.8,25.833,4.451-16.047L27.364,37.161,42.97,22.513,23.225,18.559,32.268,5.605A19.941,19.941,0,0,0,20.9,2.018ZM33.967,6.882v0l-7.339,10.3L47.209,21.3,30.555,36.932,40.2,43.693,35.883,59.262c2.894-2.9,7.718-7.729,12.324-12.34,6.086-6.093,11.834-11.848,12.167-12.18a19.213,19.213,0,0,0,0-27.118A18.978,18.978,0,0,0,46.851,2.018,19.242,19.242,0,0,0,35.21,5.951l-1.24.932Z" transform="translate(0 0)" fill="#4592ff"/>
</svg>
